<svg t="1749658008068" class="icon" viewBox="0 0 1024 1024" version="1.1" xmlns="http://www.w3.org/2000/svg" p-id="1500" width="200" height="200"><path d="M682.666667 160a106.666667 106.666667 0 0 1 106.453333 99.669333l0.213333 6.997334v11.946666l81.365334-83.968a76.8 76.8 0 0 1 103.381333-6.4l5.205333 4.650667a76.8 76.8 0 0 1 23.04 48.256l0.341334 6.912v529.152a76.8 76.8 0 0 1-127.146667 58.026667l-5.034667-4.821334-81.152-84.48v11.392a106.666667 106.666667 0 0 1-99.669333 106.453334L682.666667 864H128a106.666667 106.666667 0 0 1-106.453333-99.669333L21.333333 757.333333V266.666667a106.666667 106.666667 0 0 1 99.669334-106.453334L128 160h554.666667z m0 85.333333H128a21.333333 21.333333 0 0 0-20.992 17.493334l-0.341333 3.84v490.666666a21.333333 21.333333 0 0 0 17.493333 20.992l3.84 0.341334h554.666667a21.333333 21.333333 0 0 0 20.992-17.493334l0.341333-3.84V266.666667a21.333333 21.333333 0 0 0-21.333333-21.333334z m234.666666 23.765334l-128 132.138666v221.568l128 133.205334V269.098667zM354.133333 368.298667a34.133333 34.133333 0 0 1 17.92 5.034666l178.048 109.610667a34.133333 34.133333 0 0 1 0 58.112L372.010667 650.666667a34.133333 34.133333 0 0 1-52.010667-29.098667V402.432a34.133333 34.133333 0 0 1 34.133333-34.133333z" fill="#1196db" p-id="1501"></path></svg>