<?xml version="1.0" standalone="no"?><!DOCTYPE svg PUBLIC "-//W3C//DTD SVG 1.1//EN" "http://www.w3.org/Graphics/SVG/1.1/DTD/svg11.dtd"><svg t="1750487211855" class="icon" viewBox="0 0 1024 1024" version="1.1" xmlns="http://www.w3.org/2000/svg" p-id="4571" xmlns:xlink="http://www.w3.org/1999/xlink" width="200" height="200"><path d="M135.934972 64.303538l752.130056 0c39.559994 0 71.631434 32.069393 71.631434 71.629387l0 752.132102c0 39.559994-32.07144 71.631434-71.631434 71.631434l-752.130056 0c-39.562041 0-71.631434-32.07144-71.631434-71.631434L64.303538 135.932925C64.303538 96.372931 96.372931 64.303538 135.934972 64.303538z" fill="#3CAF34" p-id="4572"></path><path d="M639.977743 396.113643c8.237615 0 16.389272 0.589424 24.471344 1.494027C642.456191 295.204395 532.9788 219.119533 408.005484 219.119533c-139.720182 0-254.162654 95.216595-254.162654 216.140689 0 69.826322 38.075177 127.117143 101.703333 171.585937l-25.419949 76.453253 88.851631-44.548612c31.79003 6.282077 57.301054 12.762675 89.027639 12.762675 7.975649 0 15.880689-0.398066 23.727401-1.013073-4.964058-16.981766-7.845689-34.777061-7.845689-53.255924C423.88822 486.210637 519.241938 396.113643 639.977743 396.113643L639.977743 396.113643zM501.526461 322.041624c21.701255 0 39.292911 17.59268 39.292911 39.294958s-17.591657 39.293935-39.292911 39.293935c-21.703301 0-39.294958-17.59268-39.294958-39.293935C462.231503 339.635327 479.825207 322.041624 501.526461 322.041624L501.526461 322.041624zM323.697333 401.423579c-21.701255 0-39.294958-17.59268-39.294958-39.293935 0-21.701255 17.593703-39.293935 39.294958-39.293935 21.703301 0 39.294958 17.59268 39.294958 39.293935C362.992291 383.829875 345.400634 401.423579 323.697333 401.423579L323.697333 401.423579zM870.157169 595.018785c0-101.612259-101.67775-184.441733-215.882815-184.441733-120.931257 0-216.172411 82.82845-216.172411 184.441733 0 101.788268 95.241154 184.436616 216.172411 184.436616 25.307386 0 50.839899-6.388501 76.260871-12.760628l69.716828 38.184671-19.119453-63.516616C832.150554 703.091176 870.157169 652.339282 870.157169 595.018785L870.157169 595.018785zM587.860758 566.534034c-15.45397 0-27.981285-12.530384-27.981285-27.983331 0-15.454994 12.527314-27.981285 27.981285-27.981285 15.45397 0 27.982308 12.527314 27.982308 27.981285C615.843066 554.004673 603.314729 566.534034 587.860758 566.534034L587.860758 566.534034zM727.581963 568.121182c-15.456017 0-27.982308-12.529361-27.982308-27.981285 0-15.456017 12.527314-27.981285 27.982308-27.981285 15.45397 0 27.982308 12.526291 27.982308 27.981285C755.565295 555.591821 743.035934 568.121182 727.581963 568.121182L727.581963 568.121182z" fill="#FFFFFF" p-id="4573"></path></svg>